# xmcd CD database file
#
# Track frame offsets:
#	150
#	18843
#	42520
#	64845
#
# Disc length: 1102 seconds
#
# Revision: 0
# Processed by: cddbd v1.5.1PL0 Copyright (c) Steve Scherf et al.
# Submitted via: CDex 1.51
#
DISCID=2d044c04
DTITLE=オダギリジョー - "t"
DYEAR=2000
DGENRE=JPop
TTITLE0="t"
TTITLE1=空へ飛ぶ時
TTITLE2=空へ飛ぶ時（Remix）
TTITLE3="t"（Plugged）
EXTD=YEAR: 2000
EXTT0=
EXTT1=
EXTT2=
EXTT3=
PLAYORDER=
